<mxfile host="65bd71144e" pages="1">
    <diagram id="3ldU3HKUhR_c8mddi6MC" name="Page-1">
        <mxGraphModel dx="1505" dy="1108" grid="1" gridSize="10" guides="1" tooltips="1" connect="1" arrows="1" fold="1" page="0" pageScale="1" pageWidth="850" pageHeight="1100" background="none" math="0" shadow="0">
            <root>
                <mxCell id="0"/>
                <mxCell id="1" parent="0"/>
                <mxCell id="2" value="YouChoix" style="shape=umlFrame;whiteSpace=wrap;html=1;fillColor=default;" parent="1" vertex="1">
                    <mxGeometry x="-130" y="-100" width="520" height="680" as="geometry"/>
                </mxCell>
                <mxCell id="6" value="consuletr les produis" style="ellipse;whiteSpace=wrap;html=1;" parent="1" vertex="1">
                    <mxGeometry x="52.75" y="-80" width="110" height="50" as="geometry"/>
                </mxCell>
                <mxCell id="7" value="voir les details de chaque produit" style="ellipse;whiteSpace=wrap;html=1;" parent="1" vertex="1">
                    <mxGeometry x="47.75" y="-24" width="110" height="50" as="geometry"/>
                </mxCell>
                <mxCell id="9" value="Ajouter et retirer des produit dans le&amp;nbsp; panier" style="ellipse;whiteSpace=wrap;html=1;" parent="1" vertex="1">
                    <mxGeometry x="5" y="170" width="140" height="61" as="geometry"/>
                </mxCell>
                <mxCell id="10" value="confirmer leur quantités&amp;nbsp;" style="ellipse;whiteSpace=wrap;html=1;" parent="1" vertex="1">
                    <mxGeometry x="20" y="239" width="110" height="50" as="geometry"/>
                </mxCell>
                <mxCell id="22" value="gestion des produits" style="ellipse;whiteSpace=wrap;html=1;" parent="1" vertex="1">
                    <mxGeometry x="26" y="370" width="120" height="53" as="geometry"/>
                </mxCell>
                <mxCell id="25" value="rendre les utilisateurs des admins" style="ellipse;whiteSpace=wrap;html=1;" parent="1" vertex="1">
                    <mxGeometry x="28.5" y="430" width="115" height="56" as="geometry"/>
                </mxCell>
                <mxCell id="26" value="gestion des cetégories" style="ellipse;whiteSpace=wrap;html=1;" parent="1" vertex="1">
                    <mxGeometry x="28.5" y="500" width="115" height="56" as="geometry"/>
                </mxCell>
                <mxCell id="27" value="LOGIN" style="ellipse;whiteSpace=wrap;html=1;" parent="1" vertex="1">
                    <mxGeometry x="300" y="189" width="80" height="50" as="geometry"/>
                </mxCell>
                <mxCell id="28" value="" style="endArrow=classic;html=1;" parent="1" edge="1">
                    <mxGeometry width="50" height="50" relative="1" as="geometry">
                        <mxPoint x="-175" y="410" as="sourcePoint"/>
                        <mxPoint x="-175" y="290" as="targetPoint"/>
                    </mxGeometry>
                </mxCell>
                <mxCell id="29" value="" style="endArrow=none;html=1;" parent="1" target="9" edge="1" source="72">
                    <mxGeometry width="50" height="50" relative="1" as="geometry">
                        <mxPoint x="-150" y="150" as="sourcePoint"/>
                        <mxPoint x="-75" y="215" as="targetPoint"/>
                    </mxGeometry>
                </mxCell>
                <mxCell id="30" value="" style="endArrow=none;html=1;entryX=0;entryY=0.5;entryDx=0;entryDy=0;" parent="1" target="10" edge="1" source="72">
                    <mxGeometry width="50" height="50" relative="1" as="geometry">
                        <mxPoint x="-150" y="150" as="sourcePoint"/>
                        <mxPoint x="-39.99999999999841" y="78" as="targetPoint"/>
                    </mxGeometry>
                </mxCell>
                <mxCell id="34" value="" style="endArrow=none;html=1;entryX=0;entryY=0.5;entryDx=0;entryDy=0;" parent="1" target="22" edge="1" source="74">
                    <mxGeometry width="50" height="50" relative="1" as="geometry">
                        <mxPoint x="-150" y="330" as="sourcePoint"/>
                        <mxPoint x="-140" y="610" as="targetPoint"/>
                    </mxGeometry>
                </mxCell>
                <mxCell id="35" value="" style="endArrow=none;html=1;entryX=0;entryY=0.5;entryDx=0;entryDy=0;" parent="1" target="25" edge="1" source="74">
                    <mxGeometry width="50" height="50" relative="1" as="geometry">
                        <mxPoint x="-150" y="329" as="sourcePoint"/>
                        <mxPoint x="-34.999999999998295" y="329" as="targetPoint"/>
                    </mxGeometry>
                </mxCell>
                <mxCell id="36" value="" style="endArrow=none;html=1;entryX=0;entryY=0.5;entryDx=0;entryDy=0;" parent="1" target="26" edge="1" source="74">
                    <mxGeometry width="50" height="50" relative="1" as="geometry">
                        <mxPoint x="-150" y="330" as="sourcePoint"/>
                        <mxPoint x="-24.999999999998295" y="339" as="targetPoint"/>
                    </mxGeometry>
                </mxCell>
                <mxCell id="38" value="" style="endArrow=none;html=1;entryX=0;entryY=0.5;entryDx=0;entryDy=0;" parent="1" target="7" edge="1" source="70">
                    <mxGeometry width="50" height="50" relative="1" as="geometry">
                        <mxPoint x="-150" as="sourcePoint"/>
                        <mxPoint x="-39.98928924726033" y="78.47235660824606" as="targetPoint"/>
                    </mxGeometry>
                </mxCell>
                <mxCell id="39" value="" style="endArrow=none;html=1;entryX=0.046;entryY=0.72;entryDx=0;entryDy=0;entryPerimeter=0;" parent="1" target="6" edge="1" source="70">
                    <mxGeometry width="50" height="50" relative="1" as="geometry">
                        <mxPoint x="-150" as="sourcePoint"/>
                        <mxPoint x="-29.98928924726033" y="88.47235660824606" as="targetPoint"/>
                    </mxGeometry>
                </mxCell>
                <mxCell id="45" value="Use" style="endArrow=open;endSize=12;dashed=1;html=1;exitX=0.93;exitY=0.225;exitDx=0;exitDy=0;exitPerimeter=0;entryX=0.344;entryY=1.015;entryDx=0;entryDy=0;entryPerimeter=0;" parent="1" source="26" target="27" edge="1">
                    <mxGeometry width="160" relative="1" as="geometry">
                        <mxPoint x="66.52999999999997" y="511.0500000000002" as="sourcePoint"/>
                        <mxPoint x="194.4000000000001" y="281.25" as="targetPoint"/>
                    </mxGeometry>
                </mxCell>
                <mxCell id="46" value="Use" style="endArrow=open;endSize=12;dashed=1;html=1;entryX=0;entryY=1;entryDx=0;entryDy=0;exitX=1;exitY=0.5;exitDx=0;exitDy=0;" parent="1" target="27" edge="1" source="25">
                    <mxGeometry width="160" relative="1" as="geometry">
                        <mxPoint x="60" y="370" as="sourcePoint"/>
                        <mxPoint x="170" y="260" as="targetPoint"/>
                    </mxGeometry>
                </mxCell>
                <mxCell id="47" value="Use" style="endArrow=open;endSize=12;dashed=1;html=1;exitX=1;exitY=0.5;exitDx=0;exitDy=0;entryX=0.075;entryY=0.76;entryDx=0;entryDy=0;entryPerimeter=0;" parent="1" source="22" edge="1" target="27">
                    <mxGeometry width="160" relative="1" as="geometry">
                        <mxPoint x="70" y="380" as="sourcePoint"/>
                        <mxPoint x="161" y="250" as="targetPoint"/>
                        <Array as="points">
                            <mxPoint x="230" y="310"/>
                        </Array>
                    </mxGeometry>
                </mxCell>
                <mxCell id="50" value="Use" style="endArrow=open;endSize=12;dashed=1;html=1;exitX=0.987;exitY=0.754;exitDx=0;exitDy=0;exitPerimeter=0;entryX=0;entryY=0.5;entryDx=0;entryDy=0;" parent="1" source="10" target="27" edge="1">
                    <mxGeometry width="160" relative="1" as="geometry">
                        <mxPoint x="84.99999999999818" y="245" as="sourcePoint"/>
                        <mxPoint x="180" y="260" as="targetPoint"/>
                    </mxGeometry>
                </mxCell>
                <mxCell id="53" value="Use" style="endArrow=open;endSize=12;dashed=1;html=1;exitX=1;exitY=0.5;exitDx=0;exitDy=0;entryX=0;entryY=0.5;entryDx=0;entryDy=0;" parent="1" source="9" edge="1" target="27">
                    <mxGeometry width="160" relative="1" as="geometry">
                        <mxPoint x="94.99999999999818" y="255" as="sourcePoint"/>
                        <mxPoint x="180" y="220" as="targetPoint"/>
                        <Array as="points"/>
                    </mxGeometry>
                </mxCell>
                <mxCell id="64" value="" style="endArrow=classic;html=1;" parent="1" edge="1">
                    <mxGeometry width="50" height="50" relative="1" as="geometry">
                        <mxPoint x="-174" y="180.5" as="sourcePoint"/>
                        <mxPoint x="-174" y="40" as="targetPoint"/>
                    </mxGeometry>
                </mxCell>
                <mxCell id="66" value="rechercher des produits par leur nom" style="ellipse;whiteSpace=wrap;html=1;" parent="1" vertex="1">
                    <mxGeometry x="52.75" y="31" width="110" height="50" as="geometry"/>
                </mxCell>
                <mxCell id="67" value="" style="endArrow=none;html=1;entryX=0;entryY=0.5;entryDx=0;entryDy=0;" parent="1" target="66" edge="1" source="70">
                    <mxGeometry width="50" height="50" relative="1" as="geometry">
                        <mxPoint x="-150" as="sourcePoint"/>
                        <mxPoint x="-34.999999999999545" y="26" as="targetPoint"/>
                    </mxGeometry>
                </mxCell>
                <mxCell id="68" value="filtrer des produits par leur categories&amp;nbsp;" style="ellipse;whiteSpace=wrap;html=1;" parent="1" vertex="1">
                    <mxGeometry x="40" y="85" width="127.5" height="60" as="geometry"/>
                </mxCell>
                <mxCell id="69" value="" style="endArrow=none;html=1;entryX=0;entryY=0.5;entryDx=0;entryDy=0;" parent="1" target="68" edge="1" source="70">
                    <mxGeometry width="50" height="50" relative="1" as="geometry">
                        <mxPoint x="-147" y="5.952078521939939" as="sourcePoint"/>
                        <mxPoint x="-39.500000000002046" y="66" as="targetPoint"/>
                    </mxGeometry>
                </mxCell>
                <mxCell id="70" value="visiteur" style="shape=umlActor;verticalLabelPosition=bottom;verticalAlign=top;html=1;" vertex="1" parent="1">
                    <mxGeometry x="-190" y="-50" width="30" height="60" as="geometry"/>
                </mxCell>
                <mxCell id="72" value="utilisateur" style="shape=umlActor;verticalLabelPosition=bottom;verticalAlign=top;html=1;" vertex="1" parent="1">
                    <mxGeometry x="-190" y="200" width="30" height="60" as="geometry"/>
                </mxCell>
                <mxCell id="75" value="" style="endArrow=none;html=1;entryX=0.091;entryY=0.42;entryDx=0;entryDy=0;entryPerimeter=0;" edge="1" parent="1" source="72" target="76">
                    <mxGeometry width="50" height="50" relative="1" as="geometry">
                        <mxPoint x="-150" y="150" as="sourcePoint"/>
                        <mxPoint x="30" y="265" as="targetPoint"/>
                    </mxGeometry>
                </mxCell>
                <mxCell id="76" value="passer une commande&amp;nbsp;" style="ellipse;whiteSpace=wrap;html=1;" vertex="1" parent="1">
                    <mxGeometry x="20" y="300" width="110" height="50" as="geometry"/>
                </mxCell>
                <mxCell id="77" value="Use" style="endArrow=open;endSize=12;dashed=1;html=1;exitX=1;exitY=0.5;exitDx=0;exitDy=0;" edge="1" parent="1" source="76" target="27">
                    <mxGeometry width="160" relative="1" as="geometry">
                        <mxPoint x="-30" y="310" as="sourcePoint"/>
                        <mxPoint x="220" y="320" as="targetPoint"/>
                    </mxGeometry>
                </mxCell>
                <mxCell id="74" value="Admin" style="shape=umlActor;verticalLabelPosition=bottom;verticalAlign=top;html=1;" vertex="1" parent="1">
                    <mxGeometry x="-190" y="423" width="30" height="60" as="geometry"/>
                </mxCell>
            </root>
        </mxGraphModel>
    </diagram>
</mxfile>
